<svg version="1.1" xmlns="http://www.w3.org/2000/svg" xmlns:xlink="http://www.w3.org/1999/xlink" width="24px" height="24px" viewBox="0,0,256,256"><g fill="none" fill-rule="nonzero" stroke="none" stroke-width="1" stroke-linecap="butt" stroke-linejoin="miter" stroke-miterlimit="10" stroke-dasharray="" stroke-dashoffset="0" font-family="none" font-weight="none" font-size="none" text-anchor="none" style="mix-blend-mode: normal"><g transform="scale(10.66667,10.66667)"><path d="M0,0h24v24h-24z" fill="none"></path><path d="M7,18c-1.1,0 -1.99,0.9 -1.99,2c0,1.1 0.89,2 1.99,2c1.1,0 2,-0.9 2,-2c0,-1.1 -0.9,-2 -2,-2zM1,2v2h2l3.6,7.59l-1.35,2.45c-0.16,0.28 -0.25,0.61 -0.25,0.96c0,1.1 0.9,2 2,2h12v-2h-11.58c-0.14,0 -0.25,-0.11 -0.25,-0.25l0.03,-0.12l0.9,-1.63h7.45c0.75,0 1.41,-0.41 1.75,-1.03l3.58,-6.49c0.08,-0.14 0.12,-0.31 0.12,-0.48c0,-0.55 -0.45,-1 -1,-1h-14.79l-0.94,-2zM17,18c-1.1,0 -1.99,0.9 -1.99,2c0,1.1 0.89,2 1.99,2c1.1,0 2,-0.9 2,-2c0,-1.1 -0.9,-2 -2,-2z" fill="#aed6b6"></path></g></g></svg>